<svg width="512" height="512" viewBox="0 0 512 512" fill="none" xmlns="http://www.w3.org/2000/svg">
  <defs>
    <linearGradient id="bg" x1="48" y1="40" x2="468" y2="472" gradientUnits="userSpaceOnUse">
      <stop stop-color="#08111e"/>
      <stop offset="0.55" stop-color="#0c1c33"/>
      <stop offset="1" stop-color="#1b1632"/>
    </linearGradient>
    <radialGradient id="glowLeft" cx="0" cy="0" r="1" gradientUnits="userSpaceOnUse" gradientTransform="translate(152 136) rotate(28) scale(150 126)">
      <stop stop-color="#38bdf8" stop-opacity="0.36"/>
      <stop offset="1" stop-color="#38bdf8" stop-opacity="0"/>
    </radialGradient>
    <radialGradient id="glowRight" cx="0" cy="0" r="1" gradientUnits="userSpaceOnUse" gradientTransform="translate(366 144) rotate(158) scale(174 132)">
      <stop stop-color="#a78bfa" stop-opacity="0.30"/>
      <stop offset="1" stop-color="#a78bfa" stop-opacity="0"/>
    </radialGradient>
    <linearGradient id="panel" x1="116" y1="116" x2="396" y2="398" gradientUnits="userSpaceOnUse">
      <stop stop-color="#101a2b" stop-opacity="0.96"/>
      <stop offset="1" stop-color="#151d30" stop-opacity="0.92"/>
    </linearGradient>
    <linearGradient id="line" x1="154" y1="250" x2="352" y2="186" gradientUnits="userSpaceOnUse">
      <stop stop-color="#7dd3fc"/>
      <stop offset="1" stop-color="#c4b5fd"/>
    </linearGradient>
    <linearGradient id="barA" x1="0" y1="0" x2="0" y2="1">
      <stop stop-color="#93c5fd"/>
      <stop offset="1" stop-color="#38bdf8"/>
    </linearGradient>
    <linearGradient id="barB" x1="0" y1="0" x2="0" y2="1">
      <stop stop-color="#c4b5fd"/>
      <stop offset="1" stop-color="#8b5cf6"/>
    </linearGradient>
    <linearGradient id="barC" x1="0" y1="0" x2="0" y2="1">
      <stop stop-color="#86efac"/>
      <stop offset="1" stop-color="#22c55e"/>
    </linearGradient>
  </defs>

  <circle cx="256" cy="256" r="248" fill="url(#bg)"/>
  <circle cx="256" cy="256" r="246" stroke="white" stroke-opacity="0.08" stroke-width="4"/>
  <ellipse cx="152" cy="136" rx="150" ry="126" fill="url(#glowLeft)"/>
  <ellipse cx="366" cy="144" rx="174" ry="132" fill="url(#glowRight)"/>

  <rect x="112" y="112" width="288" height="288" rx="34" fill="url(#panel)" stroke="white" stroke-opacity="0.08" stroke-width="3"/>
  <rect x="136" y="138" width="240" height="24" rx="12" fill="#0d2740" fill-opacity="0.82" stroke="#7dd3fc" stroke-opacity="0.20"/>
  <circle cx="154" cy="150" r="4" fill="#7dd3fc"/>
  <circle cx="170" cy="150" r="4" fill="#a78bfa"/>
  <circle cx="186" cy="150" r="4" fill="#22c55e"/>

  <path d="M154 318H358" stroke="#64748b" stroke-opacity="0.28" stroke-width="2"/>
  <path d="M154 278H358" stroke="#64748b" stroke-opacity="0.18" stroke-dasharray="4 6" stroke-width="2"/>
  <path d="M154 238H358" stroke="#64748b" stroke-opacity="0.18" stroke-dasharray="4 6" stroke-width="2"/>

  <rect x="170" y="286" width="28" height="32" rx="10" fill="url(#barA)"/>
  <rect x="212" y="264" width="28" height="54" rx="10" fill="url(#barB)"/>
  <rect x="254" y="236" width="28" height="82" rx="10" fill="url(#barA)"/>
  <rect x="296" y="208" width="28" height="110" rx="10" fill="url(#barC)"/>

  <path d="M156 252C178 236 198 238 220 220C238 206 254 210 274 196C294 182 316 186 350 158" stroke="url(#line)" stroke-width="8" stroke-linecap="round"/>
  <circle cx="156" cy="252" r="8" fill="#7dd3fc"/>
  <circle cx="220" cy="220" r="8" fill="#a78bfa"/>
  <circle cx="274" cy="196" r="8" fill="#7dd3fc"/>
  <circle cx="350" cy="158" r="8" fill="#22c55e"/>

  <circle cx="170" cy="362" r="15" fill="#0f2237" stroke="#7dd3fc" stroke-opacity="0.24"/>
  <circle cx="214" cy="362" r="15" fill="#171d34" stroke="#a78bfa" stroke-opacity="0.24"/>
  <circle cx="258" cy="362" r="15" fill="#13241f" stroke="#22c55e" stroke-opacity="0.24"/>
  <path d="M185 362H199" stroke="#64748b" stroke-opacity="0.34" stroke-width="2"/>
  <path d="M229 362H243" stroke="#64748b" stroke-opacity="0.34" stroke-width="2"/>

  <rect x="286" y="344" width="90" height="34" rx="17" fill="#0c2b40" fill-opacity="0.74" stroke="#7dd3fc" stroke-opacity="0.22"/>
  <text x="304" y="366" fill="#e0f2fe" font-family="Arial, Helvetica, sans-serif" font-size="15" font-weight="700" letter-spacing="1.2">ANALYTICS</text>
</svg>
